<svg xmlns="http://www.w3.org/2000/svg" width="164" height="164" viewBox="0 0 164 164" fill="none">
<mask id="mask0_17_214" style="mask-type:alpha" maskUnits="userSpaceOnUse" x="0" y="0" width="164" height="164" fill="#ff8a00">
<circle cx="82" cy="81.7422" r="81.7422" fill="#C4C4C4"/>
</mask>
<g mask="url(#mask0_17_214)">
<path opacity="0.1" d="M208.217 102.758C208.217 102.758 243.136 78.6043 237.516 26.6999C231.896 -25.2045 188.222 -70.572 144.534 -89.7316C100.846 -108.891 65.7651 -72.4989 31.9011 -63.2641C-1.963 -54.0293 -26.4864 -75.5941 -59.1468 -46.2032C-91.8072 -16.8123 -91.0689 17.8728 -76.8825 46.6847C-62.6962 75.4966 -37.7305 92.6896 -23.6529 117.607C-9.57536 142.524 7.72356 178.952 50.3294 203.01C92.9352 227.069 136.793 202.749 163.362 173.238C189.931 143.728 188.101 118.997 208.217 102.758Z" fill="#F5F5F5"/>
<path opacity="0.1" d="M214.247 -16.4614C214.247 -16.4614 217.388 -58.8035 173.471 -87.0344C129.555 -115.265 66.8204 -109.78 24.4699 -87.8216C-17.8806 -65.8633 -11.5996 -15.7076 -25.6857 16.4426C-39.7719 48.5928 -71.9556 54.1284 -69.6023 98.0031C-67.249 141.878 -39.797 163.091 -8.46751 170.151C22.862 177.21 51.9219 168.584 80.1528 173.283C108.384 177.981 147.594 187.402 193.076 169.363C238.559 151.324 247.185 101.922 240.912 62.7124C234.64 23.5024 214.247 9.39112 214.247 -16.4614Z" fill="#F5F5F5"/>
<path d="M82.5323 75.7029V-0.950046H111.701V-33.2007" stroke="#ff8a00" stroke-miterlimit="10" fill="#ff8a00"/>
<path d="M84.7098 87.9215H219.005V68.8274H244.674" stroke="#ff8a00" stroke-miterlimit="10" fill="#ff8a00"/>
<path d="M78.1273 87.2599H-49.5774V66.8593H-77.222" stroke="#ff8a00" stroke-miterlimit="10" fill="#ff8a00"/>
<path d="M56.4035 -53.6097V-24.6419H39.9474V-6.21771H60.3564V55.6624" stroke="#ff8a00" stroke-miterlimit="10" fill="#ff8a00"/>
<path d="M146.59 31.9622V-9.50894H157.778V-27.2799H166.999" stroke="#ff8a00" stroke-miterlimit="10" fill="#ff8a00"/>
<path d="M10.9879 28.0178V-3.5797L1.7674 -12.8002V-35.8388" stroke="#ff8a00" stroke-miterlimit="10" fill="#ff8a00"/>
<path d="M60.3263 135.061V152.179H49.1378V171.273H16.8787" stroke="#ff8a00" stroke-miterlimit="10" fill="#ff8a00"/>
<path d="M93.4249 147.699V165.47H119.093V158.234H126.337V173.367H148.723" stroke="#ff8a00" stroke-miterlimit="10" fill="#ff8a00"/>
<path d="M82.8003 19.1658C73.873 27.5404 50.9767 35.9151 24.337 53.7447C24.337 53.7447 26.012 114.042 82.8003 146.963V19.1658Z" fill="#F5F5F5" stroke="#ff8a00" stroke-linecap="round" stroke-linejoin="round"/>
<path d="M82.8003 19.1658C91.736 27.5404 114.624 35.9151 141.272 53.7447C141.272 53.7447 139.597 114.042 82.8003 146.963V19.1658Z" fill="#ff8a00" stroke="#ff8a00" stroke-linecap="round" stroke-linejoin="round"/>
<path d="M82.8003 24.2995C71.997 31.7864 53.33 38.9132 28.6248 55.4447C28.6248 55.4447 30.1741 111.303 82.8003 141.837C135.435 111.303 136.984 55.4447 136.984 55.4447C112.279 38.9132 93.6706 31.7864 82.8003 24.2995Z" fill="#ff8a00" stroke="#ff8a00" stroke-linecap="round" stroke-linejoin="round"/>
<path d="M136.984 55.4447C112.279 38.9216 93.6706 31.7864 82.8003 24.2995V141.837C135.435 111.303 136.984 55.4447 136.984 55.4447Z" fill="#F5F5F5" stroke="#ff8a00" stroke-linecap="round" stroke-linejoin="round"/>
<path d="M181.889 85.0156H-16.8243V97.879H181.889V85.0156Z" fill="#ff8a00" stroke="#ff8a00" stroke-linecap="round" stroke-linejoin="round"/>
<path d="M0.645203 87.7791C0.792161 87.9312 0.980799 88.0363 1.18739 88.0814C1.39398 88.1265 1.60929 88.1095 1.80623 88.0325C2.00317 87.9555 2.17294 87.822 2.29419 87.6488C2.41543 87.4755 2.48273 87.2703 2.48762 87.0589C2.48479 86.8075 2.38937 86.566 2.21962 86.3806C1.66375 86.8106 1.13774 87.2778 0.645203 87.7791Z" fill="#ff8a00"/>
<path d="M5.83746 87.7791C5.93771 87.8821 6.05749 87.964 6.18978 88.0201C6.32208 88.0761 6.46424 88.1053 6.60793 88.1057C6.7472 88.108 6.88554 88.0826 7.01495 88.0311C7.14437 87.9795 7.26231 87.9029 7.36196 87.8056C7.46161 87.7083 7.54101 87.5922 7.59558 87.464C7.65015 87.3359 7.67879 87.1982 7.67988 87.0589C7.67705 86.8075 7.58164 86.566 7.4119 86.3806C6.85781 86.8127 6.33192 87.2799 5.83746 87.7791Z" fill="#ff8a00"/>
<path d="M11.0884 87.7791C11.2342 87.9324 11.4223 88.0386 11.6288 88.0844C11.8353 88.1302 12.0508 88.1133 12.2477 88.036C12.4446 87.9587 12.6139 87.8244 12.7341 87.6504C12.8543 87.4763 12.9199 87.2704 12.9224 87.0589C12.9196 86.8075 12.8242 86.566 12.6544 86.3806C12.1012 86.8105 11.5779 87.2778 11.0884 87.7791Z" fill="#ff8a00"/>
<path d="M16.3057 87.7791C16.4515 87.9324 16.6397 88.0386 16.8462 88.0844C17.0527 88.1302 17.2682 88.1133 17.465 88.036C17.6619 87.9587 17.8313 87.8244 17.9515 87.6504C18.0716 87.4763 18.1372 87.2704 18.1398 87.0589C18.1369 86.8075 18.0415 86.566 17.8718 86.3806C17.3203 86.8127 16.7972 87.2798 16.3057 87.7791Z" fill="#ff8a00"/>
<path d="M21.5232 87.7791C21.6232 87.8825 21.7429 87.9646 21.8752 88.0207C22.0076 88.0768 22.1499 88.1057 22.2937 88.1057C22.4322 88.1068 22.5697 88.0806 22.6981 88.0286C22.8266 87.9766 22.9435 87.8998 23.0423 87.8026C23.141 87.7054 23.2197 87.5897 23.2737 87.4621C23.3278 87.3345 23.3561 87.1975 23.3572 87.0589C23.3577 86.8069 23.2618 86.5642 23.0893 86.3806C22.5378 86.8127 22.0147 87.2798 21.5232 87.7791Z" fill="#ff8a00"/>
<path d="M26.774 87.7791C26.921 87.9312 27.1096 88.0363 27.3162 88.0814C27.5228 88.1265 27.7381 88.1095 27.9351 88.0325C28.132 87.9555 28.3018 87.822 28.423 87.6488C28.5443 87.4755 28.6116 87.2703 28.6165 87.0589C28.6136 86.8075 28.5182 86.566 28.3485 86.3806C27.7944 86.8127 27.2685 87.2799 26.774 87.7791Z" fill="#ff8a00"/>
<path d="M31.9579 87.7791C32.0582 87.8821 32.178 87.964 32.3103 88.0201C32.4426 88.0761 32.5847 88.1053 32.7284 88.1057C32.8677 88.108 33.006 88.0826 33.1354 88.0311C33.2648 87.9795 33.3828 87.9029 33.4824 87.8056C33.5821 87.7083 33.6615 87.5922 33.716 87.464C33.7706 87.3359 33.7993 87.1982 33.8004 87.0589C33.7975 86.8075 33.7021 86.566 33.5324 86.3806C32.9783 86.8127 32.4524 87.2799 31.9579 87.7791Z" fill="#ff8a00"/>
<path d="M37.1837 87.7791C37.3295 87.9324 37.5177 88.0386 37.7242 88.0844C37.9307 88.1302 38.1461 88.1133 38.343 88.036C38.5399 87.9587 38.7093 87.8244 38.8294 87.6504C38.9496 87.4763 39.0152 87.2704 39.0178 87.0589C39.0149 86.8075 38.9195 86.566 38.7498 86.3806C38.1983 86.8127 37.6752 87.2798 37.1837 87.7791Z" fill="#ff8a00"/>
<path d="M42.4012 87.7791C42.547 87.9324 42.7351 88.0386 42.9416 88.0844C43.1481 88.1302 43.3636 88.1133 43.5605 88.036C43.7574 87.9587 43.9267 87.8244 44.0469 87.6504C44.1671 87.4763 44.2327 87.2704 44.2352 87.0589C44.2357 86.8069 44.1398 86.5642 43.9672 86.3806C43.4158 86.8127 42.8927 87.2798 42.4012 87.7791Z" fill="#ff8a00"/>
<path d="M47.6186 87.7791C47.7655 87.9312 47.9542 88.0363 48.1608 88.0814C48.3674 88.1265 48.5827 88.1095 48.7796 88.0325C48.9766 87.9555 49.1463 87.822 49.2676 87.6488C49.3888 87.4755 49.4561 87.2703 49.461 87.0589C49.4582 86.8075 49.3628 86.566 49.193 86.3806C48.6372 86.8106 48.1111 87.2778 47.6186 87.7791Z" fill="#ff8a00"/>
<path d="M52.8359 87.7791C52.9361 87.8821 53.0559 87.964 53.1882 88.0201C53.3205 88.0761 53.4626 88.1053 53.6063 88.1057C53.7456 88.108 53.884 88.0826 54.0134 88.0311C54.1428 87.9795 54.2607 87.9029 54.3604 87.8056C54.46 87.7083 54.5394 87.5922 54.594 87.464C54.6486 87.3359 54.6772 87.1982 54.6783 87.0589C54.6755 86.8075 54.5801 86.566 54.4103 86.3806C53.8562 86.8127 53.3303 87.2799 52.8359 87.7791Z" fill="#ff8a00"/>
<path d="M0.645203 96.0868C0.792666 96.2393 0.98206 96.3446 1.18941 96.3894C1.39676 96.4342 1.61274 96.4165 1.81 96.3385C2.00727 96.2605 2.17695 96.1257 2.29757 95.9512C2.4182 95.7767 2.48434 95.5703 2.48762 95.3582C2.48275 95.1097 2.38747 94.8715 2.21962 94.6882C1.66375 95.1182 1.13774 95.5855 0.645203 96.0868Z" fill="#ff8a00"/>
<path d="M5.83746 96.0868C5.93771 96.1897 6.05749 96.2716 6.18978 96.3277C6.32208 96.3838 6.46424 96.4129 6.60793 96.4134C6.7476 96.4145 6.88612 96.3881 7.01558 96.3357C7.14504 96.2832 7.26292 96.2058 7.36246 96.1078C7.462 96.0098 7.54127 95.8932 7.59573 95.7646C7.6502 95.636 7.67878 95.4979 7.67988 95.3582C7.67501 95.1097 7.57974 94.8715 7.4119 94.6882C6.85781 95.1204 6.33192 95.5875 5.83746 96.0868Z" fill="#ff8a00"/>
<path d="M11.0884 96.0868C11.1865 96.1903 11.3047 96.2726 11.4357 96.3288C11.5668 96.3849 11.7079 96.4137 11.8505 96.4134C11.9901 96.4145 12.1287 96.3881 12.2581 96.3357C12.3876 96.2832 12.5054 96.2058 12.605 96.1078C12.7045 96.0098 12.7838 95.8932 12.8383 95.7646C12.8927 95.636 12.9213 95.4979 12.9224 95.3582C12.9176 95.1097 12.8223 94.8715 12.6544 94.6882C12.1012 95.1182 11.5779 95.5855 11.0884 96.0868Z" fill="#ff8a00"/>
<path d="M16.3057 96.0868C16.4038 96.1903 16.522 96.2726 16.6531 96.3288C16.7841 96.3849 16.9252 96.4137 17.0678 96.4134C17.2075 96.4145 17.346 96.3881 17.4755 96.3357C17.6049 96.2832 17.7228 96.2058 17.8223 96.1078C17.9219 96.0098 18.0011 95.8932 18.0556 95.7646C18.1101 95.636 18.1387 95.4979 18.1398 95.3582C18.1349 95.1097 18.0396 94.8715 17.8718 94.6882C17.3203 95.1204 16.7972 95.5875 16.3057 96.0868Z" fill="#ff8a00"/>
<path d="M21.5232 96.0868C21.6695 96.2405 21.8584 96.347 22.0657 96.3925C22.273 96.4379 22.4891 96.4204 22.6863 96.342C22.8836 96.2637 23.0528 96.1281 23.1724 95.9528C23.2919 95.7775 23.3563 95.5704 23.3572 95.3582C23.3564 95.1089 23.2606 94.8693 23.0893 94.6882C22.5378 95.1204 22.0147 95.5875 21.5232 96.0868Z" fill="#ff8a00"/>
<path d="M26.774 96.0868C26.9215 96.2393 27.1109 96.3446 27.3183 96.3894C27.5256 96.4342 27.7416 96.4165 27.9388 96.3385C28.1361 96.2605 28.3058 96.1257 28.4264 95.9512C28.547 95.7767 28.6132 95.5703 28.6165 95.3582C28.6116 95.1097 28.5163 94.8715 28.3485 94.6882C27.7944 95.1204 27.2685 95.5875 26.774 96.0868Z" fill="#ff8a00"/>
<path d="M31.9579 96.0868C32.0582 96.1897 32.178 96.2716 32.3103 96.3277C32.4426 96.3838 32.5847 96.4129 32.7284 96.4134C32.8681 96.4145 33.0066 96.3881 33.1361 96.3357C33.2655 96.2832 33.3834 96.2058 33.4829 96.1078C33.5825 96.0098 33.6617 95.8932 33.7162 95.7646C33.7707 95.636 33.7993 95.4979 33.8004 95.3582C33.7955 95.1097 33.7002 94.8715 33.5324 94.6882C32.9783 95.1204 32.4524 95.5875 31.9579 96.0868Z" fill="#ff8a00"/>
<path d="M37.1837 96.0868C37.2818 96.1903 37.4 96.2726 37.5311 96.3288C37.6621 96.3849 37.8032 96.4137 37.9458 96.4134C38.0855 96.4145 38.224 96.3881 38.3535 96.3357C38.4829 96.2832 38.6008 96.2058 38.7003 96.1078C38.7999 96.0098 38.8791 95.8932 38.9336 95.7646C38.9881 95.636 39.0167 95.4979 39.0178 95.3582C39.0129 95.1097 38.9176 94.8715 38.7498 94.6882C38.1983 95.1204 37.6752 95.5875 37.1837 96.0868Z" fill="#ff8a00"/>
<path d="M42.4012 96.0868C42.5475 96.2405 42.7364 96.347 42.9437 96.3925C43.151 96.4379 43.3671 96.4204 43.5643 96.342C43.7615 96.2637 43.9308 96.1281 44.0504 95.9528C44.1699 95.7775 44.2343 95.5704 44.2352 95.3582C44.2344 95.1089 44.1385 94.8693 43.9672 94.6882C43.4158 95.1204 42.8927 95.5875 42.4012 96.0868Z" fill="#ff8a00"/>
<path d="M47.6186 96.0868C47.7661 96.2393 47.9554 96.3446 48.1628 96.3894C48.3701 96.4342 48.5861 96.4165 48.7834 96.3385C48.9807 96.2605 49.1503 96.1257 49.271 95.9512C49.3916 95.7767 49.4577 95.5703 49.461 95.3582C49.4561 95.1097 49.3609 94.8715 49.193 94.6882C48.6372 95.1182 48.1111 95.5855 47.6186 96.0868Z" fill="#ff8a00"/>
<path d="M52.8359 96.0868C52.9361 96.1897 53.0559 96.2716 53.1882 96.3277C53.3205 96.3838 53.4626 96.4129 53.6063 96.4134C53.746 96.4145 53.8845 96.3881 54.014 96.3357C54.1435 96.2832 54.2613 96.2058 54.3609 96.1078C54.4604 96.0098 54.5397 95.8932 54.5941 95.7646C54.6486 95.636 54.6772 95.4979 54.6783 95.3582C54.6734 95.1097 54.5782 94.8715 54.4103 94.6882C53.8562 95.1204 53.3303 95.5875 52.8359 96.0868Z" fill="#ff8a00"/>
<path d="M110.671 87.7791C110.817 87.9324 111.005 88.0386 111.212 88.0844C111.418 88.1302 111.634 88.1133 111.83 88.036C112.027 87.9587 112.197 87.8244 112.317 87.6504C112.437 87.4763 112.503 87.2704 112.505 87.0589C112.502 86.8075 112.407 86.566 112.237 86.3806C111.686 86.8127 111.163 87.2798 110.671 87.7791Z" fill="#ff8a00"/>
<path d="M115.889 87.7791C116.034 87.9324 116.223 88.0386 116.429 88.0844C116.636 88.1302 116.851 88.1133 117.048 88.036C117.245 87.9587 117.414 87.8244 117.534 87.6504C117.654 87.4763 117.72 87.2704 117.723 87.0589C117.723 86.8069 117.627 86.5642 117.455 86.3806C116.903 86.8127 116.38 87.2798 115.889 87.7791Z" fill="#ff8a00"/>
<path d="M121.106 87.7791C121.253 87.9312 121.441 88.0363 121.648 88.0814C121.855 88.1265 122.07 88.1095 122.267 88.0325C122.464 87.9555 122.634 87.822 122.755 87.6488C122.876 87.4755 122.943 87.2703 122.948 87.0589C122.945 86.8075 122.85 86.566 122.68 86.3806C122.124 86.8106 121.598 87.2778 121.106 87.7791Z" fill="#ff8a00"/>
<path d="M126.323 87.7791C126.423 87.8821 126.543 87.964 126.676 88.0201C126.808 88.0761 126.95 88.1053 127.094 88.1057C127.233 88.108 127.371 88.0826 127.501 88.0311C127.63 87.9795 127.748 87.9029 127.848 87.8056C127.947 87.7083 128.027 87.5922 128.081 87.464C128.136 87.3359 128.165 87.1982 128.166 87.0589C128.163 86.8075 128.067 86.566 127.898 86.3806C127.344 86.8127 126.818 87.2799 126.323 87.7791Z" fill="#ff8a00"/>
<path d="M131.549 87.7791C131.695 87.9324 131.883 88.0386 132.09 88.0844C132.296 88.1302 132.512 88.1133 132.708 88.036C132.905 87.9587 133.075 87.8244 133.195 87.6504C133.315 87.4763 133.381 87.2704 133.383 87.0589C133.38 86.8075 133.285 86.566 133.115 86.3806C132.562 86.8105 132.039 87.2778 131.549 87.7791Z" fill="#ff8a00"/>
<path d="M136.767 87.7791C136.912 87.9324 137.101 88.0386 137.307 88.0844C137.514 88.1302 137.729 88.1133 137.926 88.036C138.123 87.9587 138.292 87.8244 138.412 87.6504C138.533 87.4763 138.598 87.2704 138.601 87.0589C138.598 86.8075 138.502 86.566 138.333 86.3806C137.781 86.8127 137.258 87.2798 136.767 87.7791Z" fill="#ff8a00"/>
<path d="M141.984 87.7791C142.13 87.9324 142.318 88.0386 142.524 88.0844C142.731 88.1302 142.946 88.1133 143.143 88.036C143.34 87.9587 143.509 87.8244 143.629 87.6504C143.75 87.4763 143.815 87.2704 143.818 87.0589C143.818 86.8069 143.722 86.5642 143.55 86.3806C142.998 86.8127 142.475 87.2798 141.984 87.7791Z" fill="#ff8a00"/>
<path d="M147.201 87.7791C147.348 87.9312 147.537 88.0363 147.743 88.0814C147.95 88.1265 148.165 88.1095 148.362 88.0325C148.559 87.9555 148.729 87.822 148.85 87.6488C148.971 87.4755 149.039 87.2703 149.044 87.0589C149.041 86.8075 148.945 86.566 148.776 86.3806C148.22 86.8106 147.694 87.2778 147.201 87.7791Z" fill="#ff8a00"/>
<path d="M152.394 87.7791C152.494 87.8821 152.614 87.964 152.746 88.0201C152.878 88.0761 153.02 88.1053 153.164 88.1057C153.303 88.108 153.442 88.0826 153.571 88.0311C153.7 87.9795 153.818 87.9029 153.918 87.8056C154.018 87.7083 154.097 87.5922 154.152 87.464C154.206 87.3359 154.235 87.1982 154.236 87.0589C154.233 86.8075 154.138 86.566 153.968 86.3806C153.414 86.8127 152.888 87.2799 152.394 87.7791Z" fill="#ff8a00"/>
<path d="M157.644 87.7791C157.79 87.9324 157.978 88.0386 158.185 88.0844C158.391 88.1302 158.607 88.1133 158.804 88.036C159 87.9587 159.17 87.8244 159.29 87.6504C159.41 87.4763 159.476 87.2704 159.478 87.0589C159.476 86.8075 159.38 86.566 159.21 86.3806C158.657 86.8105 158.134 87.2778 157.644 87.7791Z" fill="#ff8a00"/>
<path d="M162.862 87.7791C163.008 87.9324 163.196 88.0386 163.402 88.0844C163.609 88.1302 163.824 88.1133 164.021 88.036C164.218 87.9587 164.387 87.8244 164.508 87.6504C164.628 87.4763 164.693 87.2704 164.696 87.0589C164.693 86.8075 164.598 86.566 164.428 86.3806C163.876 86.8127 163.353 87.2798 162.862 87.7791Z" fill="#ff8a00"/>
<path d="M110.671 96.0868C110.769 96.1903 110.887 96.2726 111.018 96.3288C111.15 96.3849 111.291 96.4137 111.433 96.4134C111.573 96.4145 111.711 96.3881 111.841 96.3357C111.97 96.2832 112.088 96.2058 112.188 96.1078C112.287 96.0098 112.367 95.8932 112.421 95.7646C112.475 95.636 112.504 95.4979 112.505 95.3582C112.5 95.1097 112.405 94.8715 112.237 94.6882C111.686 95.1204 111.163 95.5875 110.671 96.0868Z" fill="#ff8a00"/>
<path d="M115.889 96.0868C116.035 96.2405 116.224 96.347 116.431 96.3925C116.638 96.4379 116.854 96.4204 117.052 96.342C117.249 96.2637 117.418 96.1281 117.538 95.9528C117.657 95.7775 117.722 95.5704 117.723 95.3582C117.722 95.1089 117.626 94.8693 117.455 94.6882C116.903 95.1204 116.38 95.5875 115.889 96.0868Z" fill="#ff8a00"/>
<path d="M121.106 96.0868C121.253 96.2393 121.443 96.3446 121.65 96.3894C121.857 96.4342 122.073 96.4165 122.271 96.3385C122.468 96.2605 122.638 96.1257 122.758 95.9512C122.879 95.7767 122.945 95.5703 122.948 95.3582C122.943 95.1097 122.848 94.8715 122.68 94.6882C122.124 95.1182 121.598 95.5855 121.106 96.0868Z" fill="#ff8a00"/>
<path d="M126.323 96.0868C126.423 96.1897 126.543 96.2716 126.676 96.3277C126.808 96.3838 126.95 96.4129 127.094 96.4134C127.233 96.4145 127.372 96.3881 127.501 96.3357C127.631 96.2832 127.749 96.2058 127.848 96.1078C127.948 96.0098 128.027 95.8932 128.082 95.7646C128.136 95.636 128.165 95.4979 128.166 95.3582C128.161 95.1097 128.066 94.8715 127.898 94.6882C127.344 95.1204 126.818 95.5875 126.323 96.0868Z" fill="#ff8a00"/>
<path d="M131.549 96.0868C131.647 96.1903 131.765 96.2726 131.896 96.3288C132.027 96.3849 132.169 96.4137 132.311 96.4134C132.451 96.4145 132.589 96.3881 132.719 96.3357C132.848 96.2832 132.966 96.2058 133.066 96.1078C133.165 96.0098 133.245 95.8932 133.299 95.7646C133.353 95.636 133.382 95.4979 133.383 95.3582C133.378 95.1097 133.283 94.8715 133.115 94.6882C132.562 95.1182 132.039 95.5855 131.549 96.0868Z" fill="#ff8a00"/>
<path d="M136.767 96.0868C136.865 96.1903 136.983 96.2726 137.114 96.3288C137.245 96.3849 137.386 96.4137 137.529 96.4134C137.668 96.4145 137.807 96.3881 137.936 96.3357C138.066 96.2832 138.184 96.2058 138.283 96.1078C138.383 96.0098 138.462 95.8932 138.516 95.7646C138.571 95.636 138.6 95.4979 138.601 95.3582C138.596 95.1097 138.5 94.8715 138.333 94.6882C137.781 95.1204 137.258 95.5875 136.767 96.0868Z" fill="#ff8a00"/>
<path d="M141.984 96.0868C142.13 96.2405 142.319 96.347 142.526 96.3925C142.734 96.4379 142.95 96.4204 143.147 96.342C143.344 96.2637 143.513 96.1281 143.633 95.9528C143.753 95.7775 143.817 95.5704 143.818 95.3582C143.817 95.1089 143.721 94.8693 143.55 94.6882C142.998 95.1204 142.475 95.5875 141.984 96.0868Z" fill="#ff8a00"/>
<path d="M147.201 96.0868C147.349 96.2393 147.538 96.3446 147.745 96.3894C147.953 96.4342 148.169 96.4165 148.366 96.3385C148.563 96.2605 148.733 96.1257 148.854 95.9512C148.974 95.7767 149.04 95.5703 149.044 95.3582C149.039 95.1097 148.943 94.8715 148.776 94.6882C148.22 95.1182 147.694 95.5855 147.201 96.0868Z" fill="#ff8a00"/>
<path d="M152.394 96.0868C152.494 96.1897 152.614 96.2716 152.746 96.3277C152.878 96.3838 153.02 96.4129 153.164 96.4134C153.304 96.4145 153.442 96.3881 153.572 96.3357C153.701 96.2832 153.819 96.2058 153.919 96.1078C154.018 96.0098 154.097 95.8932 154.152 95.7646C154.206 95.636 154.235 95.4979 154.236 95.3582C154.231 95.1097 154.136 94.8715 153.968 94.6882C153.414 95.1204 152.888 95.5875 152.394 96.0868Z" fill="#ff8a00"/>
<path d="M157.644 96.0868C157.742 96.1903 157.861 96.2726 157.992 96.3288C158.123 96.3849 158.264 96.4137 158.406 96.4134C158.546 96.4145 158.685 96.3881 158.814 96.3357C158.944 96.2832 159.061 96.2058 159.161 96.1078C159.26 96.0098 159.34 95.8932 159.394 95.7646C159.449 95.636 159.477 95.4979 159.478 95.3582C159.473 95.1097 159.378 94.8715 159.21 94.6882C158.657 95.1182 158.134 95.5855 157.644 96.0868Z" fill="#ff8a00"/>
<path d="M162.862 96.0868C162.96 96.1903 163.078 96.2726 163.209 96.3288C163.34 96.3849 163.481 96.4137 163.624 96.4134C163.764 96.4145 163.902 96.3881 164.032 96.3357C164.161 96.2832 164.279 96.2058 164.378 96.1078C164.478 96.0098 164.557 95.8932 164.612 95.7646C164.666 95.636 164.695 95.4979 164.696 95.3582C164.691 95.1097 164.596 94.8715 164.428 94.6882C163.876 95.1204 163.353 95.5875 162.862 96.0868Z" fill="#ff8a00"/>
<path d="M103.327 80.6189H62.9525C62.0755 80.619 61.2335 80.2753 60.6071 79.6615C59.9808 79.0477 59.6201 78.2128 59.6026 77.336V58.7108C59.6026 46.0065 70.163 35.6638 83.1437 35.6638C96.1244 35.6638 106.693 46.0065 106.693 58.7108V77.336C106.676 78.2157 106.313 79.0531 105.683 79.6674C105.053 80.2817 104.206 80.6234 103.327 80.6189ZM66.3023 74.0867H99.9683V58.7108C99.9683 54.2464 98.1948 49.9649 95.038 46.8081C91.8812 43.6513 87.5997 41.8778 83.1353 41.8778C78.6709 41.8778 74.3894 43.6513 71.2326 46.8081C68.0758 49.9649 66.3023 54.2464 66.3023 58.7108V74.0867Z" stroke="#ff8a00" stroke-linecap="round" stroke-linejoin="round" fill="#ff8a00"/>
<path d="M108.502 71.6412H57.0986V114.168H108.502V71.6412Z" fill="#F5F5F5" stroke="#ff8a00" stroke-linecap="round" stroke-linejoin="round"/>
<path d="M88.1517 89.3033C88.0957 87.856 87.4814 86.4866 86.4376 85.4824C85.3938 84.4782 84.0017 83.9172 82.5533 83.9172C81.1049 83.9172 79.7127 84.4782 78.6689 85.4824C77.6251 86.4866 77.0108 87.856 76.9548 89.3033C76.9594 90.2987 77.2355 91.2741 77.7535 92.1241C78.2715 92.9742 79.0117 93.6667 79.8943 94.1271L78.9564 103.783H86.1502L85.2122 94.1271C86.0948 93.6667 86.835 92.9742 87.353 92.1241C87.871 91.2741 88.1472 90.2987 88.1517 89.3033Z" fill="#ff8a00" stroke="#ff8a00" stroke-linecap="round" stroke-linejoin="round"/>
</g>
</svg>